<svg id="Layer_1" data-name="Layer 1" xmlns="http://www.w3.org/2000/svg" viewBox="0 0 572.28 753.36"><defs><style>.cls-1,.cls-5{fill:#000f9f;}.cls-2{fill:#e30613;}.cls-3{fill:#79ac2b;}.cls-4{fill:none;stroke:#353382;}.cls-4,.cls-5{stroke-width:0.24px;}.cls-5{stroke:#000f9f;}</style></defs><path class="cls-1" d="M285.47,59.3c32.25-12.95,61.41-20,87.31-22.66a244,244,0,0,0-82.71-14c-74.2.2-140.12,33.5-182.15,84.08C143.64,106.91,197.46,95,285.47,59.3Z" transform="translate(-11.49 -22.59)"/><path class="cls-1" d="M288.91,105.33C364.25,74.7,421.64,77.09,461.19,92.74a231.51,231.51,0,0,0-37-30.46c-36.11-5.83-80.07.23-128.61,19.64C193.69,123.2,132.3,135.38,90.29,130.83c-3.38,5.33-6.53,10.82-9.47,16.42C110.39,157.27,167,156.36,288.91,105.33Z" transform="translate(-11.49 -22.59)"/><path class="cls-1" d="M509.1,164.56c-.22.11-.43.25-.66.35C473.92,104.57,396.73,88.27,298.76,128,173.67,180,109.87,184.63,70.38,170a233.74,233.74,0,0,0-11.19,37.62c25.72,18.88,81.59,33.13,230.7-32.25,188.05-74.36,232.17,54.78,236,90.12l1.66.16A242.06,242.06,0,0,0,509.1,164.56Z" transform="translate(-11.49 -22.59)"/><path class="cls-2" d="M467.79,264.94c0-38.64-35.61-73.62-84.23-73.61-52.4,0-89.72,40.6-83.58,82.67,3.83,26.59,20.06,48.07,41.57,60.36,32.52-30.24,77.73-64.21,119.51-68.69C463.37,265.4,465.59,265.16,467.79,264.94Z" transform="translate(-11.49 -22.59)"/><path class="cls-3" d="M530.49,271.12c-1.73-3.59-12-11.18-61.93-6.26-.17-.13-.42-.18-.77.08,0,0-50.63-3.32-126.15,69.48,0,0-.09,0-.09-.06-27.5,25.61-45.67,48-45.31,48.64-64.61-95.4-145.6-114.83-192.82-114.84-14.26,1.5-28.47,3.17-42.71,5V273h-.05c.25,4.22.61,8.43,1.14,12.67C79,406.54,183.65,490.85,296.11,491.41c112.48-.38,217.24-84.55,234.62-205.36C531.63,278.82,530.25,269.54,530.49,271.12Z" transform="translate(-11.49 -22.59)"/><polygon class="cls-1" points="399.71 600.52 383.74 615.61 367.78 600.52 383.74 585.43 399.71 600.52"/><polygon class="cls-1" points="367.52 600.52 351.56 615.61 335.6 600.52 351.56 585.43 367.52 600.52"/><polygon class="cls-4" points="399.71 600.52 383.74 615.61 367.78 600.52 383.74 585.43 399.71 600.52"/><polygon class="cls-4" points="367.52 600.52 351.56 615.61 335.6 600.52 351.56 585.43 367.52 600.52"/><path class="cls-1" d="M581.9,579.46c0,11.58-6.17,19.84-14.87,33.16q-14.44,22.2-31.45,22.2-9.78,0-29.85-8.33-21.44-9-23.56-15.8,18.69,4.18,26.36,4.17,11.9,0,31.47-10.75c14.13-7.64,22.71-16.15,22.71-22.76,0-2.49-3.34-7.16-10-14.07-3.9-4-7.85-7.91-11.91-11.88,5.78-15.39,9.82-18.26,11.53-19.91Q581.9,556.17,581.9,579.46Z" transform="translate(-11.49 -22.59)"/><path class="cls-1" d="M489.16,503.84c4.55-8.27,7.86-13.81,10-16.63q7,44.57,7,72,0,26.37-13.57,42.55l-10.66-82.22Q481.73,517.36,489.16,503.84Z" transform="translate(-11.49 -22.59)"/><path class="cls-1" d="M465.82,546.94c2.06,5,3.1,8.4,3.1,22.43q0,30.6-10.05,30.59H398.09a95.3,95.3,0,0,0,2.12-18.13c.34-6.05.57-4.17.73-10.21h51.47c0-5.3-4.16-19.31-12.45-26.27q-11.71-9.72-19.87-10.85,2.15-7.71,4.56-15.39c1.91-6.64.05-5.63,2-9.07C441.45,514.26,457,526.55,465.82,546.94Z" transform="translate(-11.49 -22.59)"/><path class="cls-1" d="M379.46,532q-.9-2.19-12.88-19.81l-14.24,23.75c5.8,5.51,11.1,21.16,15.86,34.51H204.46a12,12,0,0,1-4.76-2.22c-.76-2.59-1.84-17.87-3.21-33.39-2.76,1.59-5.67,4.5-8.75,8.7q-3.21,5-6.67,10c.14,5.08-.3,16.25-1.37,18.28h-17c2-5.06,3.15-23.22,3.45-39.28q-6.41,4.35-17.47,21.05l.45,3.9-.91,12.59c-.92,1.16-8.34-.19-18.15-.19-4.62,0-9.5-11.52-14.73-19.33-2.93-5.5-5.89-10.93-9-16.27L91.39,558.42a68.73,68.73,0,0,1,11.15,18.69c3.15,7.51,4.72,14.33,4.72,20.41,0,2-9.22,14.61-20.1,16.77-9.52,2-16.34,3.06-20.5,3.06-9.21,0-16-1.17-20.47-3.48-5.82-3.06-8.74-15.73-8.74-23.69a32.33,32.33,0,0,1,4.62-16.32c.78-1.46,4.07-6.3,9.88-14.57q-12.18,2-23.22,23.28-9.91,19.14-9.88,32.61c0,9.69,4.66,16.81,14,21.3,7.19,3.35,16.56,5,28.05,5q23,0,36.35-10.22c8.9-6.83,19.24-20.5,23.56-34.42q1.85,0,6.33.29c3,.19,5.32.29,7,.29,7.35,0,14.17-.08,16.32-4.08l4.82,5.45H185a22.69,22.69,0,0,1,7.13-7.83,27,27,0,0,1,3.67,7.83H379.46q1.85-4.35,3.93-22.85,1.59-16.1,1.6-22A45.56,45.56,0,0,0,379.46,532Z" transform="translate(-11.49 -22.59)"/><path class="cls-5" d="M34,773.72H11.64l22.9-117.4H82.86c8.3,0,14.78.92,19.4,2.77a22.59,22.59,0,0,1,11.2,10.12q4.29,7.38,4.28,17.86,0,15-8.33,24.72t-25.18,12a46.61,46.61,0,0,1,8.1,11q7.52,13.77,16.72,38.92h-24q-2.94-9.94-11.42-31.06Q69,731.29,63.83,727.35,60.62,725,52.64,725H43.47Zm12.95-66.34h12Q77,707.38,83,705a19.21,19.21,0,0,0,9.3-7.26,18.4,18.4,0,0,0,3.36-10.42q0-6.37-4.87-9.59-3-1.92-12.9-1.92H53.06Z" transform="translate(-11.49 -22.59)"/><path class="cls-5" d="M181.28,747.83H138l-13.18,25.89H101.7l61.57-117.4h25.08l17.76,117.4H184.86Zm-2.69-19.52L172.08,681,148,728.31Z" transform="translate(-11.49 -22.59)"/><path class="cls-5" d="M208.61,773.72l22.9-117.4h29.35c8.18,0,13.39.14,15.66.41a42.3,42.3,0,0,1,12.07,3,33.15,33.15,0,0,1,9.66,6.29,38.85,38.85,0,0,1,7.51,9.73,50.34,50.34,0,0,1,4.86,13.08A71.7,71.7,0,0,1,312.33,705q0,19-6.71,33.68T288.69,762q-7.81,6.74-20.15,9.93-7,1.77-21.5,1.77Zm26-18.82H246q12.36,0,17.87-1.64A24.48,24.48,0,0,0,274,747.14q6.64-6.48,11.14-17.28c3.05-7.2,4.54-15.69,4.54-25.45q0-12.46-3.73-18.76c-2.5-4.18-5.57-7-9.24-8.36-2.56-1-7.15-1.44-13.72-1.44H250Z" transform="translate(-11.49 -22.59)"/><path class="cls-5" d="M307.1,773.72,330,656.32h80.56l-3.66,19.53h-58.4l-5.41,26.82h56.69l-3.68,19.51H339.13l-6.47,32h63.42l-3.95,19.53Z" transform="translate(-11.49 -22.59)"/><path class="cls-5" d="M397.16,773.72l22.91-117.4h80.57L497,675.85h-58.4l-5.38,26.82h56.68l-3.7,19.51H429.2l-6.45,32h63.4l-3.94,19.53Z" transform="translate(-11.49 -22.59)"/><path class="cls-5" d="M490.2,735.65l21.32-1.22q.44,11,3.51,14.89,4.94,6.28,18.22,6.28,11,0,16-4.25a13.1,13.1,0,0,0,4.93-10.27,11.43,11.43,0,0,0-4-8.83q-2.83-2.64-15.58-8.58c-8.48-3.94-14.69-7.26-18.6-9.91a28,28,0,0,1-9.23-10.3,31.12,31.12,0,0,1-3.37-14.83q0-14.85,10-24.63t28.93-9.79q19.25,0,29.78,9.66c7,6.48,10.89,15,11.6,25.76l-21.59,1c-.55-5.62-2.43-9.93-5.69-12.92s-8-4.49-14.35-4.49-10.68,1.19-13.33,3.55a11.29,11.29,0,0,0-4,8.91,10.73,10.73,0,0,0,3.66,8.35q3.63,3.36,16.2,9.23,18.88,8.76,24.05,14.22,7.67,8,7.68,20.64a35.68,35.68,0,0,1-11.42,26.63q-11.42,11-31.81,11c-9.39,0-17.5-1.7-24.38-5.1s-11.7-8.13-14.53-14.19A45.77,45.77,0,0,1,490.2,735.65Z" transform="translate(-11.49 -22.59)"/></svg>